<svg width="72" height="124" xmlns="http://www.w3.org/2000/svg"><g><path d="M0 124h72V0H0v124z" fill="#191e3a" fill-rule="evenodd"/><g><g><g transform="translate(43.5 33.5)"><filter id="a" y="-27%" height="154%" x="-27%" width="154%"><feGaussianBlur in="SourceAlpha" stdDeviation="1.25"/><feOffset result="oBlur"/><feFlood flood-color="#000" flood-opacity=".502"/><feComposite in2="oBlur" operator="in"/><feMerge><feMergeNode/><feMergeNode in="SourceGraphic"/></feMerge></filter><path transform="translate(-18.5 -18.5)" d="M0 34a3 3 0 0 0 3 3h31a3 3 0 0 0 3-3V3a3 3 0 0 0-3-3H3a3 3 0 0 0-3 3v31z" fill="#191e3a" fill-rule="evenodd" filter="url(#a)"/></g><path d="M49.37 35.5l-20.87 12v-24l20.87 12z" stroke-linecap="round" stroke="#bfc9d4" stroke-width="3" stroke-linejoin="round" fill="none"/></g><g><g transform="translate(43.5 90.5)"><filter id="b" y="-27%" height="154%" x="-27%" width="154%"><feGaussianBlur in="SourceAlpha" stdDeviation="1.25"/><feOffset result="oBlur"/><feFlood flood-color="#000" flood-opacity=".502"/><feComposite in2="oBlur" operator="in"/><feMerge><feMergeNode/><feMergeNode in="SourceGraphic"/></feMerge></filter><path transform="translate(-18.5 -18.5)" d="M0 34a3 3 0 0 0 3 3h31a3 3 0 0 0 3-3V3a3 3 0 0 0-3-3H3a3 3 0 0 0-3 3v31z" fill="#191e3a" fill-rule="evenodd" filter="url(#b)"/></g><path d="M40 100h8c1.1 0 2-.9 2-2V86H38v12c0 1.1.9 2 2 2zm11-17h-3.5l-1-1h-5l-1 1H37v2h14v-2z" fill="#bfc9d4" fill-rule="evenodd"/></g></g></g></svg>