<svg width="33" height="33" xmlns="http://www.w3.org/2000/svg">

 <g>
  <g id="svg_1">
   <path id="svg_2" fill-rule="evenodd" fill="#d3a42e" d="m23,12l-1.143,0l0,-2.286a5.716,5.716 0 0 0 -5.714,-5.714a5.716,5.716 0 0 0 -5.714,5.714l0,2.286l-1.143,0a2.292,2.292 0 0 0 -2.286,2.286l0,11.428a2.292,2.292 0 0 0 2.286,2.286l13.714,0a2.292,2.292 0 0 0 2.286,-2.286l0,-11.428a2.292,2.292 0 0 0 -2.286,-2.286zm0,13.714l-13.714,0l0,-11.428l13.714,0l0,11.428zm-3.314,-16l0,2.286l-7.086,0l0,-2.286a3.546,3.546 0 0 1 3.543,-3.543a3.546,3.546 0 0 1 3.543,3.543zm-3.543,12.572a2.292,2.292 0 0 0 2.286,-2.286a2.292,2.292 0 0 0 -2.286,-2.286a2.292,2.292 0 0 0 -2.286,2.286a2.292,2.292 0 0 0 2.286,2.286z" xmlns="http://www.w3.org/2000/svg"/>
  </g>
 </g>
</svg>