<svg width="37.38" height="40" xmlns="http://www.w3.org/2000/svg"><g><g><path d="M10.64 23.833l-5.257-.55-2.218-5.047-1.728.45.017.071c.15.607 1.265 4.96 2.532 5.982.05.04.101.076.155.108 1.428.826 6.31.976 6.31.976l.189-1.99z" fill="#ecb365" fill-rule="evenodd" style="stroke:none;stroke-width:0;stroke-dasharray:none;stroke-linecap:butt;stroke-dashoffset:0;stroke-linejoin:miter;stroke-miterlimit:4;fill:#ecb365;fill-rule:evenodd;opacity:1"/><g><path d="M10.161000000000001 26.597a2.327 2.327 0 1 1 3.074-3.493 2.327 2.327 0 0 1-3.074 3.493z" fill="#2a0e24" fill-rule="evenodd"/><path d="M10.05 26.5c.436.439 1.03.685 1.649.683a2.317 2.317 0 0 0 1.649-.683c.44-.44.683-1.026.683-1.649s-.243-1.209-.683-1.649a2.316 2.316 0 0 0-1.65-.683 2.316 2.316 0 0 0-1.648.683 2.316 2.316 0 0 0-.683 1.649 2.317 2.317 0 0 0 .683 1.649zm1.649-3.975a2.31 2.31 0 0 0-1.645.682 2.31 2.31 0 0 0-.68 1.644 2.31 2.31 0 0 0 .68 1.644 2.31 2.31 0 0 0 1.645.682 2.31 2.31 0 0 0 1.644-.682 2.31 2.31 0 0 0 .682-1.644 2.31 2.31 0 0 0-.682-1.644 2.31 2.31 0 0 0-1.644-.682z" fill="#2a0e24" fill-rule="evenodd"/></g><path d="M2.8120000000000003 23.949a1.741 1.741 0 1 1 3.388-.803 1.741 1.741 0 0 1-3.388.803zM1.1630000000000003 18.653a1.433 1.433 0 1 1 2.026-2.026 1.433 1.433 0 0 1-2.026 2.026z" fill="#2a0e24" fill-rule="evenodd" style="stroke:none;stroke-width:0;stroke-dasharray:none;stroke-linecap:butt;stroke-dashoffset:0;stroke-linejoin:miter;stroke-miterlimit:4;fill:#2a0e24;fill-rule:evenodd;opacity:1"/><g><path d="M4.42 16.413a.328.328 0 0 0-.462-.036l-.901.77a.328.328 0 1 0 .427.5l.9-.77a.328.328 0 0 0 .036-.464zM2.582 14.74a.328.328 0 0 0-.328.328v1.185a.328.328 0 1 0 .656 0v-1.185a.328.328 0 0 0-.328-.328zM1.46 14.828a.33.33 0 0 0-.25.394l.26 1.161a.33.33 0 1 0 .644-.144l-.26-1.162a.33.33 0 0 0-.395-.249zM.282 15.309a.33.33 0 0 0-.122.45l.593 1.03a.33.33 0 1 0 .57-.328l-.592-1.03a.33.33 0 0 0-.45-.122z" fill="#2a0e24" fill-rule="evenodd" style="stroke:none;stroke-width:0;stroke-dasharray:none;stroke-linecap:butt;stroke-dashoffset:0;stroke-linejoin:miter;stroke-miterlimit:4;fill:#2a0e24;fill-rule:evenodd;opacity:1"/></g></g><g><path d="M35.04 36.235l-1.57.666-4.52-10.66 1.571-.666 4.52 10.66z" fill="#d3a42e" fill-rule="evenodd" style="stroke:none;stroke-width:0;stroke-dasharray:none;stroke-linecap:butt;stroke-dashoffset:0;stroke-linejoin:miter;stroke-miterlimit:4;fill:#d3a42e;fill-rule:evenodd;opacity:1"/><g><path d="M27.445 26.87a2.329 2.329 0 1 1 3.027-3.54 2.329 2.329 0 0 1-3.027 3.54z" fill="#2a0e24" fill-rule="evenodd"/><path d="M28.842 27.433a2.308 2.308 0 0 0 1.205-.268 2.317 2.317 0 0 0 1.138-1.375 2.35 2.35 0 0 0 .105-.69 2.32 2.32 0 0 0-.271-1.087 2.317 2.317 0 0 0-1.375-1.138 2.347 2.347 0 0 0-.69-.105c-.379 0-.752.093-1.087.271-.55.291-.955.78-1.139 1.375a2.317 2.317 0 0 0 .167 1.777 2.343 2.343 0 0 0 1.947 1.24zm2.337-1.645a2.311 2.311 0 0 1-1.135 1.371 2.31 2.31 0 0 1-1.772.166A2.311 2.311 0 0 1 26.9 26.19a2.315 2.315 0 0 1-.166-1.773 2.31 2.31 0 0 1 1.135-1.37 2.315 2.315 0 0 1 1.772-.167c.59.18 1.084.59 1.371 1.136a2.312 2.312 0 0 1 .166 1.772zm0 0l.003.001h-.003z" fill="#2a0e24" fill-rule="evenodd"/></g><path d="M31.514 33.269a1.742 1.742 0 1 1 .943-3.353 1.742 1.742 0 0 1-.943 3.353z" fill="#2a0e24" fill-rule="evenodd" style="stroke:none;stroke-width:0;stroke-dasharray:none;stroke-linecap:butt;stroke-dashoffset:0;stroke-linejoin:miter;stroke-miterlimit:4;fill:#2a0e24;fill-rule:evenodd;opacity:1"/><g><path d="M33.2 37.027a1.427 1.427 0 1 1 2.854 0 1.427 1.427 0 0 1-2.854 0z" fill="#2a0e24" fill-rule="evenodd" style="stroke:none;stroke-width:0;stroke-dasharray:none;stroke-linecap:butt;stroke-dashoffset:0;stroke-linejoin:miter;stroke-miterlimit:4;fill:#2a0e24;fill-rule:evenodd;opacity:1"/><path d="M32.88 38.891a.327.327 0 0 0 .45-.108l.616-1.007a.327.327 0 1 0-.558-.342l-.616 1.007a.327.327 0 0 0 .108.45zM35.153 39.915a.329.329 0 0 0 .207-.417l-.38-1.126a.329.329 0 1 0-.623.21l.379 1.126a.329.329 0 0 0 .417.207zM36.187 39.482a.33.33 0 0 0 .112-.453l-.617-1.019a.33.33 0 1 0-.564.341l.616 1.02a.33.33 0 0 0 .453.111zM37.159 38.629a.328.328 0 0 0-.03-.463l-.888-.782a.328.328 0 1 0-.434.492l.89.782c.135.12.342.106.462-.03z" fill="#2a0e24" fill-rule="evenodd" style="stroke:none;stroke-width:0;stroke-dasharray:none;stroke-linecap:butt;stroke-dashoffset:0;stroke-linejoin:miter;stroke-miterlimit:4;fill:#2a0e24;fill-rule:evenodd;opacity:1"/></g></g><path d="M11.014 22.426s.168 16.348 9.342 16.668c8.52.297 9.46-14.234 9.55-16.4.004-.089.007-.178.009-.268 0 0-1.073-2.414-9.33-2.343a42.507 42.507 0 0 0-1.914.058c-6.733.369-7.657 2.285-7.657 2.285z" fill="#d3a42e" fill-rule="evenodd" style="stroke:none;stroke-width:0;stroke-dasharray:none;stroke-linecap:butt;stroke-dashoffset:0;stroke-linejoin:miter;stroke-miterlimit:4;fill:#d3a42e;fill-rule:evenodd;opacity:1"/><path d="M24.82 18.557a.983.983 0 0 0-.983-.984h-7.62a.983.983 0 1 0 0 1.967h7.62c.543 0 .983-.44.983-.983zM20.37 5.01h-.67V1.625h.67V5.01z" fill="#2a0e24" fill-rule="evenodd" style="stroke:none;stroke-width:0;stroke-dasharray:none;stroke-linecap:butt;stroke-dashoffset:0;stroke-linejoin:miter;stroke-miterlimit:4;fill:#2a0e24;fill-rule:evenodd;opacity:1"/><path d="M27.908 13.62a1.961 1.961 0 1 1 3.817-.905 1.961 1.961 0 0 1-3.817.905zM8.039 13.47a1.976 1.976 0 1 1 3.855-.865 1.976 1.976 0 0 1-3.855.865z" fill="#d3a42e" fill-rule="evenodd" style="stroke:none;stroke-width:0;stroke-dasharray:none;stroke-linecap:butt;stroke-dashoffset:0;stroke-linejoin:miter;stroke-miterlimit:4;fill:#d3a42e;fill-rule:evenodd;opacity:1"/><path d="M19.643 4.275h-.004c-.209-.002-7.869-.003-9.224 6.645a10.197 10.197 0 0 0-.138.876c-.705 6.245 5.663 6.372 7.543 6.498h.002c.16.01.322.019.482.024.774.03 1.905.036 3.035.025l.918-.012c.904-.004 1.806-.08 2.697-.227 1.99-.36 3.452-1.222 4.215-3.148a6.997 6.997 0 0 0 .466-2.048 7.59 7.59 0 0 0 .015-.474c0-3.62-2.54-8.164-9.602-8.164-.135 0-.27.001-.405.005z" fill="#d3a42e" fill-rule="evenodd" style="stroke:none;stroke-width:0;stroke-dasharray:none;stroke-linecap:butt;stroke-dashoffset:0;stroke-linejoin:miter;stroke-miterlimit:4;fill:#d3a42e;fill-rule:evenodd;opacity:1"/><path d="M25.459 14.825l-11.62.181h-.035a2.206 2.206 0 0 1-.034-4.41l11.62-.182h.035a2.206 2.206 0 0 1 .034 4.41z" fill="#2a0e24" fill-rule="evenodd" style="stroke:none;stroke-width:0;stroke-dasharray:none;stroke-linecap:butt;stroke-dashoffset:0;stroke-linejoin:miter;stroke-miterlimit:4;fill:#2a0e24;fill-rule:evenodd;opacity:1"/><path d="M15.548 13.174a.708.708 0 1 0-.002-1.416.708.708 0 0 0 .002 1.416zM23.667 13.045a.708.708 0 1 0-.002-1.416.708.708 0 0 0 .002 1.416z" fill="#fff" fill-rule="evenodd" style="stroke:none;stroke-width:0;stroke-dasharray:none;stroke-linecap:butt;stroke-dashoffset:0;stroke-linejoin:miter;stroke-miterlimit:4;fill:#fff;fill-rule:evenodd;opacity:1"/><g><g><g><path d="M20.046 31.865a3.163 3.163 0 1 0-.007-6.327 3.163 3.163 0 0 0 .007 6.327z" fill="#2a0e24" fill-rule="evenodd" style="stroke:none;stroke-width:0;stroke-dasharray:none;stroke-linecap:butt;stroke-dashoffset:0;stroke-linejoin:miter;stroke-miterlimit:4;fill:#2a0e24;fill-rule:evenodd;opacity:1"/></g><g><path d="M20.04 31.013a2.305 2.305 0 1 0-.005-4.61 2.305 2.305 0 0 0 .006 4.61z" fill="#fff" fill-rule="evenodd" style="stroke:none;stroke-width:0;stroke-dasharray:none;stroke-linecap:butt;stroke-dashoffset:0;stroke-linejoin:miter;stroke-miterlimit:4;fill:#fff;fill-rule:evenodd;opacity:1"/></g></g><g><path d="M18.899 27.943a52.993 52.993 0 0 0 .003-.006 11461.371 11461.371 0 0 0 1.197-.672l-.067-.002.702.41.484.282-.025-.045a56.132 56.132 0 0 0 .01.993 3.745 3.745 0 0 0 .022.38v.001c0 .008-.08.062-.228.153l-.071.044a39.299 39.299 0 0 1-.874.517l-.026.014-.026-.015a4240.169 4240.169 0 0 1-1.186-.692l-.033-.019v-.039l.007-.666a276.5 276.5 0 0 1 .004-.349l.003-.178.001-.09v-.044l.001-.023v-.021-.001a7.757 7.757 0 0 1 .037-.06l.014-.009.66-.366.526-.291.034-.019.032.02.787.48.385.236.026.016v.03a57.77 57.77 0 0 1-.045 1.095c-.01.18-.02.276-.027.276-.01-.005-.134.054-.346.162-.212.108-.513.265-.88.461l.053.001-.065-.04-.489-.298-.617-.377.032.057a459.72 459.72 0 0 1 .018-1.015l.003-.178.002-.09V27.879l.001-.002-.036.061m-.004.006a.054.054 0 0 0-.001.002" fill="#f05454" fill-rule="evenodd" style="stroke:none;stroke-width:0;stroke-dasharray:none;stroke-linecap:butt;stroke-dashoffset:0;stroke-linejoin:miter;stroke-miterlimit:4;fill:#f05454;fill-rule:evenodd;opacity:1"/></g></g><path d="M19.261000000000003 2.343A1.108 1.108 0 1 1 20.828.777a1.108 1.108 0 0 1-1.567 1.566z" fill="#df1e1e" fill-rule="evenodd" style="stroke:none;stroke-width:0;stroke-dasharray:none;stroke-linecap:butt;stroke-dashoffset:0;stroke-linejoin:miter;stroke-miterlimit:4;fill:#df1e1e;fill-rule:evenodd;opacity:1"/><g><path d="M18.29 12.283a.023.023 0 0 0-.017-.014h-.002c-.017 0-.044.044-.064.13a.861.861 0 0 0-.001.392 1.39 1.39 0 0 0 .25.576c.051.07.109.137.172.199a1.43 1.43 0 0 0 .837.397c.177.015.348-.007.505-.054.139-.041.27-.104.391-.185a1.472 1.472 0 0 0 .525-.61 1.058 1.058 0 0 0 .1-.421c0-.117-.02-.18-.041-.18h-.002c-.052 0-.072.247-.282.54-.103.147-.257.3-.459.418-.2.117-.45.19-.707.17a1.127 1.127 0 0 1-.221-.047 1.261 1.261 0 0 1-.444-.249 1.498 1.498 0 0 1-.376-.494c-.135-.286-.132-.511-.164-.568z" fill="#fff" fill-rule="evenodd" style="stroke:none;stroke-width:0;stroke-dasharray:none;stroke-linecap:butt;stroke-dashoffset:0;stroke-linejoin:miter;stroke-miterlimit:4;fill:#fff;fill-rule:evenodd;opacity:1"/></g><g><path d="M28.933 15.497v.002a.684.684 0 0 0 .08-.117 7.756 7.756 0 0 0 .036-.06 3.052 3.052 0 0 0 .197-.424c.09-.226.171-.512.236-.837.05-.252.086-.506.11-.762a9.587 9.587 0 0 0 .007-1.776 7.241 7.241 0 0 0-.044-.395 1.098 1.098 0 0 0-.025-.137.732.732 0 0 0 .003.14 7.992 7.992 0 0 0 .01.128 13.008 13.008 0 0 1 .024 1.486c-.009.183-.022.366-.04.548-.059.633-.182 1.198-.324 1.589-.133.378-.27.593-.27.615z" fill="#263238" fill-rule="evenodd" style="stroke:none;stroke-width:0;stroke-dasharray:none;stroke-linecap:butt;stroke-dashoffset:0;stroke-linejoin:miter;stroke-miterlimit:4;fill:#263238;fill-rule:evenodd;opacity:1"/></g><g><path d="M10.255 11.371a4.658 4.658 0 0 0-.103.549c-.015.115-.027.23-.036.346a6.412 6.412 0 0 0 .008.905 5.902 5.902 0 0 0 .151.892c.07.269.15.507.23.701.035.096.076.179.11.253a2.206 2.206 0 0 1 .003.007 2.194 2.194 0 0 0 .116.229 1.184 1.184 0 0 0 .073.12.685.685 0 0 0-.054-.133 8.152 8.152 0 0 0-.041-.089 2.69 2.69 0 0 1-.06-.141c-.032-.077-.071-.163-.104-.262a4.347 4.347 0 0 1-.124-.367 7.314 7.314 0 0 1-.09-.333 6.997 6.997 0 0 1-.146-.883 6.646 6.646 0 0 1-.002-1.037 6.543 6.543 0 0 1 .077-.585c.016-.103.04-.194.056-.275.017-.082.035-.15.05-.207a.994.994 0 0 0 .038-.177 1 1 0 0 0-.062.17 2.287 2.287 0 0 0-.062.207l-.024.094v.001m.358 3.665l-.002-.003m.002.004a3.085 3.085 0 0 0-.001-.003z" fill="#263238" fill-rule="evenodd" style="stroke:none;stroke-width:0;stroke-dasharray:none;stroke-linecap:butt;stroke-dashoffset:0;stroke-linejoin:miter;stroke-miterlimit:4;fill:#263238;fill-rule:evenodd;opacity:1"/></g><g><path d="M12.48 22.96l.005.001a26.816 26.816 0 0 1 .032.01c.331.102.704.233 1.128.336a912.837 912.837 0 0 0 .665.175c.136.034.273.064.41.092a25.583 25.583 0 0 1 .597.129c.423.086.873.154 1.34.231.446.062.893.114 1.34.155.804.075 1.61.115 2.418.119a27.112 27.112 0 0 0 1.714-.062 29.29 29.29 0 0 0 2.044-.211 230.333 230.333 0 0 1 .759-.124c.288-.047.575-.104.86-.168.106-.023.211-.046.317-.067a9.184 9.184 0 0 0 .583-.139 4882.531 4882.531 0 0 0 .687-.179c.243-.065.468-.137.678-.204l.262-.083c.121-.04.237-.074.346-.11a6.14 6.14 0 0 0 .116-.038 421.204 421.204 0 0 1 .382-.143l.425-.16.102-.039.137-.053a.305.305 0 0 0 .046-.02.252.252 0 0 0-.048.014 12.96 12.96 0 0 1-.01.003l-.13.044-.084.03c-.117.04-.266.094-.447.157a466.227 466.227 0 0 1-.383.137c-.142.047-.297.092-.463.143l-.022.007c-.216.064-.448.14-.7.212-.137.04-.274.076-.412.109l-.28.071-.38.097-.005.002a9.225 9.225 0 0 1-.409.09 25.012 25.012 0 0 0-.595.125c-.28.056-.573.104-.874.152l-.466.075a28.88 28.88 0 0 1-3.75.267c-.57-.003-1.14-.023-1.71-.061a29.926 29.926 0 0 1-2.04-.207c-.26-.042-.515-.082-.763-.123-.286-.046-.57-.1-.853-.163a25.513 25.513 0 0 0-.318-.066 9.304 9.304 0 0 1-.41-.09 5941.683 5941.683 0 0 0-.856-.218c-.243-.064-.468-.134-.678-.2a33.598 33.598 0 0 0-.506-.154 8.087 8.087 0 0 1-.604-.206l-.153-.054-.38-.134-.138-.047a.804.804 0 0 0-.048-.014 2.374 2.374 0 0 0 .045.02l.137.054a55.288 55.288 0 0 0 .91.341c.122.043.255.083.396.128l-.004-.002c-.137-.043-.27-.083-.392-.126m.417.134a23.182 23.182 0 0 0 .003.001zm-.014-.004h-.002zm.053.017l-.003-.001m-.01-.003l-.003-.001m-.041-.014h-.003m.017.005" fill="#263238" fill-rule="evenodd" style="stroke:none;stroke-width:0;stroke-dasharray:none;stroke-linecap:butt;stroke-dashoffset:0;stroke-linejoin:miter;stroke-miterlimit:4;fill:#263238;fill-rule:evenodd;opacity:1"/></g><path d="M11.09 22.313a.733.733 0 0 0-.076.113c1.027.41 2.078.754 3.147 1.032 8.176 2.119 14.554-.49 15.602-.961l.152-.07s-1.084-2.439-9.45-2.343c-7.232.082-9.023 1.772-9.376 2.23z" fill-rule="evenodd" opacity=".3"/><g><path d="M10.61 11.4l.005-.027.011-.056.003-.012a2.028 2.028 0 0 0 .002-.009c.017-.071.036-.172.071-.295V11a7.95 7.95 0 0 1 .4-1.133c.087-.204.183-.404.288-.6a8.6 8.6 0 0 1 2.077-2.548 8.613 8.613 0 0 1 1.85-1.155c.255-.117.516-.221.78-.313a8.117 8.117 0 0 1 1.347-.343 7.262 7.262 0 0 1 .852-.097c.077-.005.142-.005.194-.007a1.79 1.79 0 0 0 .055-.001h.032a24.183 24.183 0 0 0 .057 0l-.002.002a.213.213 0 0 1-.026.004l-.028.002-.057.005c-.072.008-.177.01-.31.025l-.015.002a9.139 9.139 0 0 0-1.18.196 8.655 8.655 0 0 0-3.508 1.73 8.673 8.673 0 0 0-2.78 4.238l-.03.096-.042.157a1.8 1.8 0 0 1-.032.115 44.286 44.286 0 0 0-.018.054m.022-.117v.003" fill="#fff" fill-rule="evenodd" style="stroke:none;stroke-width:0;stroke-dasharray:none;stroke-linecap:butt;stroke-dashoffset:0;stroke-linejoin:miter;stroke-miterlimit:4;fill:#fff;fill-rule:evenodd;opacity:1"/></g><g><path d="M10.807 14.384a.01.01 0 0 0 .005.004c.02-.007-.134-.395-.212-.9-.074-.464-.056-.854-.069-.913a.008.008 0 0 0-.003-.007 1.017 1.017 0 0 0-.029.207 3.504 3.504 0 0 0 .2 1.364c.05.137.093.225.108.245z" fill="#fff" fill-rule="evenodd" style="stroke:none;stroke-width:0;stroke-dasharray:none;stroke-linecap:butt;stroke-dashoffset:0;stroke-linejoin:miter;stroke-miterlimit:4;fill:#fff;fill-rule:evenodd;opacity:1"/></g><g><path d="M8.652 13.679l.018.02a.195.195 0 0 0 .05.047v-.002c0-.015-.084-.118-.167-.303a1.517 1.517 0 0 1-.122-.81 1.518 1.518 0 0 1 .329-.75c.131-.16.24-.236.24-.249-.006-.001-.027.01-.06.03a1.05 1.05 0 0 0-.225.201c-.146.161-.305.43-.349.76a1.454 1.454 0 0 0 .154.855 1.306 1.306 0 0 0 .132.2z" fill="#fff" fill-rule="evenodd" style="stroke:none;stroke-width:0;stroke-dasharray:none;stroke-linecap:butt;stroke-dashoffset:0;stroke-linejoin:miter;stroke-miterlimit:4;fill:#fff;fill-rule:evenodd;opacity:1"/></g><g><path d="M20.109.804s.002 0 .002-.002c0-.004-.026-.017-.075-.032h-.002a.653.653 0 0 0-.237-.02.816.816 0 0 0-.61.359.814.814 0 0 0-.066.719.68.68 0 0 0 .112.193.297.297 0 0 0 .06.055.002.002 0 0 0 0-.002c0-.013-.063-.084-.114-.218a.828.828 0 0 1-.007-.57.735.735 0 0 1 .203-.294.83.83 0 0 1 .443-.197c.165-.02.273.013.29.01z" fill="#fff" fill-rule="evenodd" style="stroke:none;stroke-width:0;stroke-dasharray:none;stroke-linecap:butt;stroke-dashoffset:0;stroke-linejoin:miter;stroke-miterlimit:4;fill:#fff;fill-rule:evenodd;opacity:1"/></g><g><path d="M30.546 11.962a1.977 1.977 0 0 0-.068-.034c-.29-.143-.554-.18-.554-.2 0-.002.002-.004.004-.004.037-.01.297.008.578.146.305.146.485.36.472.369-.012.013-.177-.142-.432-.277z" fill="#fff" fill-rule="evenodd" style="stroke:none;stroke-width:0;stroke-dasharray:none;stroke-linecap:butt;stroke-dashoffset:0;stroke-linejoin:miter;stroke-miterlimit:4;fill:#fff;fill-rule:evenodd;opacity:1"/></g><g><path d="M11.327 23.47l-.001-.084c0-.018 0-.028.002-.029v.002a.247.247 0 0 1 .005.026l.007.084.005.065.017.25a140.048 140.048 0 0 0 .04.517 16.151 16.151 0 0 0 .06.674c.046.5.123 1.092.218 1.749.053.342.111.684.174 1.025.067.367.14.732.22 1.095.168.747.358 1.45.55 2.085.05.151.098.302.147.454a9.842 9.842 0 0 0 .15.438l.03.08.115.322a345.201 345.201 0 0 1 .199.5 10.5 10.5 0 0 0 .21.488 372.801 372.801 0 0 0 .112.254 258.735 258.735 0 0 0 .145.297l.072.15.026.054.035.077a.258.258 0 0 1 .01.026.083.083 0 0 1-.016-.023 9.911 9.911 0 0 1-.042-.076l-.141-.268a1032.758 1032.758 0 0 0-.06-.115l-.056-.109a219.476 219.476 0 0 0-.221-.476 10.103 10.103 0 0 1-.17-.396l-.15-.365-.148-.401a9.272 9.272 0 0 1-.157-.446c-.048-.15-.098-.298-.148-.447a28.152 28.152 0 0 1-.555-2.089 30.934 30.934 0 0 1-.66-4.766 9.774 9.774 0 0 1-.013-.3l-.01-.322z" fill="#fff" fill-rule="evenodd" style="stroke:none;stroke-width:0;stroke-dasharray:none;stroke-linecap:butt;stroke-dashoffset:0;stroke-linejoin:miter;stroke-miterlimit:4;fill:#fff;fill-rule:evenodd;opacity:1"/></g><g><path d="M8.994 23.895A.008.008 0 0 0 9 23.892a.004.004 0 0 0-.002-.003c-.03-.017-.336-.05-.735-.082a25.331 25.331 0 0 0-.367-.026c-.407-.025-.712-.034-.713-.019 0 .016.316.052.735.085a25.18 25.18 0 0 0 .368.026c.373.023.661.033.708.022z" fill="#fff" fill-rule="evenodd" style="stroke:none;stroke-width:0;stroke-dasharray:none;stroke-linecap:butt;stroke-dashoffset:0;stroke-linejoin:miter;stroke-miterlimit:4;fill:#fff;fill-rule:evenodd;opacity:1"/></g><g><path d="M3.827 20.435c.052.097.104.192.158.288.17.305.3.52.316.52a.003.003 0 0 0 .001-.003c0-.035-.182-.399-.418-.835a25.47 25.47 0 0 0-.158-.287 6.624 6.624 0 0 0-.3-.505.044.044 0 0 0-.016-.016.004.004 0 0 0-.001.003c0 .027.102.238.253.526.054.103.109.207.165.31z" fill="#fff" fill-rule="evenodd" style="stroke:none;stroke-width:0;stroke-dasharray:none;stroke-linecap:butt;stroke-dashoffset:0;stroke-linejoin:miter;stroke-miterlimit:4;fill:#fff;fill-rule:evenodd;opacity:1"/></g><g><path d="M18.31 37.988h.002l-.001-.003c-.017-.013-.203-.049-.485-.141a5.892 5.892 0 0 1-.021-.007l-.011-.004-.004-.001a4.636 4.636 0 0 1-1.265-.664 5.066 5.066 0 0 1-.534-.467 4.953 4.953 0 0 1-.314-.355 5.554 5.554 0 0 1-.106-.139c-.135-.182-.205-.3-.216-.3a.449.449 0 0 0 .05.105l.015.027c.031.057.076.13.134.214a4.054 4.054 0 0 0 .714.791 4.463 4.463 0 0 0 .44.331 4.654 4.654 0 0 0 .602.327 4.532 4.532 0 0 0 .466.173l.066.02a2.796 2.796 0 0 0 .468.093zm-.498-.149l.003.001m.007.003h.004m-.025-.008h-.004" fill="#fff" fill-rule="evenodd" style="stroke:none;stroke-width:0;stroke-dasharray:none;stroke-linecap:butt;stroke-dashoffset:0;stroke-linejoin:miter;stroke-miterlimit:4;fill:#fff;fill-rule:evenodd;opacity:1"/></g><g><path d="M20.214 32.23a.455.455 0 0 1-.118.01c-.055.003-.13.01-.221.005-.07 0-.139-.003-.208-.01a3.474 3.474 0 0 1-1.034-.256 4.822 4.822 0 0 1-.268-.122 3.943 3.943 0 0 1-.619-.4 3.535 3.535 0 0 1-1.031-1.322 3.54 3.54 0 0 1-.186-2.162 6.01 6.01 0 0 1 .054-.22c.036-.12.077-.238.122-.354a3.478 3.478 0 0 1 .625-1.014c.061-.074.12-.124.16-.163a.526.526 0 0 1 .083-.074.017.017 0 0 1-.003.008c-.019.024-.1.105-.22.246-.04.044-.076.09-.112.137a3.604 3.604 0 0 0-.382.635 3.85 3.85 0 0 0-.221.593c-.04.151-.071.304-.095.458a3.447 3.447 0 0 0-.038.527 3.532 3.532 0 0 0 .273 1.357 3.46 3.46 0 0 0 1.008 1.302c.097.079.198.152.303.22.102.065.204.124.304.179.11.055.222.107.335.153a3.967 3.967 0 0 0 .578.179 3.217 3.217 0 0 0 .65.08c.143.005.231.002.255.005.002 0 .004 0 .006.002z" fill="#fff" fill-rule="evenodd" style="stroke:none;stroke-width:0;stroke-dasharray:none;stroke-linecap:butt;stroke-dashoffset:0;stroke-linejoin:miter;stroke-miterlimit:4;fill:#fff;fill-rule:evenodd;opacity:1"/></g><g><path d="M3.681 22.61a1.309 1.309 0 0 1 .023-.02 1.41 1.41 0 0 1 .689-.29 1.374 1.374 0 0 1 .479.022c.154.036.243.081.248.07v-.002a.694.694 0 0 0-.275-.123 1.247 1.247 0 0 0-.615-.003 1.315 1.315 0 0 0-.572.306 1.15 1.15 0 0 0-.053.053.52.52 0 0 0-.11.16c.013 0 .069-.073.178-.166m.008-.008l-.003.003m0 0l-.002.002" fill="#fff" fill-rule="evenodd" style="stroke:none;stroke-width:0;stroke-dasharray:none;stroke-linecap:butt;stroke-dashoffset:0;stroke-linejoin:miter;stroke-miterlimit:4;fill:#fff;fill-rule:evenodd;opacity:1"/></g><g><path d="M23.53 10.011c0 .018-1.53.033-3.418.033-1.889 0-3.419-.015-3.419-.033 0-.016 1.315-.03 3.012-.032h.407c1.668 0 3.058.011 3.358.026.02 0 .04.002.06.006z" fill="#fff" fill-rule="evenodd" style="stroke:none;stroke-width:0;stroke-dasharray:none;stroke-linecap:butt;stroke-dashoffset:0;stroke-linejoin:miter;stroke-miterlimit:4;fill:#fff;fill-rule:evenodd;opacity:1"/></g><g><path d="M17.7 17.81l.001-.001a.22.22 0 0 0-.058-.004l-.12.001a68.888 68.888 0 0 0-.322.003h-.204l-.135-.005a8.768 8.768 0 0 1-.48-.026 12.235 12.235 0 0 1-.426-.042 11.574 11.574 0 0 1-1.095-.194 10.409 10.409 0 0 1-1.908-.659c-.118-.05-.221-.105-.313-.15a8.589 8.589 0 0 0-.065-.031 4.94 4.94 0 0 1-.172-.09l-.1-.05a105.04 105.04 0 0 0-.053-.028.396.396 0 0 0-.049-.021l.002.003a.339.339 0 0 0 .045.031l.047.03.095.057a4.059 4.059 0 0 0 .34.188 4.892 4.892 0 0 0 .22.111 8.525 8.525 0 0 0 .824.35 10.42 10.42 0 0 0 1.072.322 9.693 9.693 0 0 0 1.703.237 7.13 7.13 0 0 0 .589.006 10.253 10.253 0 0 1 .144-.004 3.651 3.651 0 0 0 .195-.012l.166-.014a1.737 1.737 0 0 0 .057-.009zm-5.31-1.175v-.001" fill="#fff" fill-rule="evenodd" style="stroke:none;stroke-width:0;stroke-dasharray:none;stroke-linecap:butt;stroke-dashoffset:0;stroke-linejoin:miter;stroke-miterlimit:4;fill:#fff;fill-rule:evenodd;opacity:1"/></g><g><path d="M15.246 24.212a.817.817 0 0 1-.04-.006c0 .002.01.005.03.01l.093.023.251.056a1204.563 1204.563 0 0 1 .253.056 9.449 9.449 0 0 0 .441.083c.142.024.296.053.462.08a7.667 7.667 0 0 0 .393.055l.337.046c.155.02.317.034.484.051.066.008.133.015.199.02.276.026.568.042.872.062.756.033 1.588.036 2.46-.014a24.892 24.892 0 0 0 2.443-.287l.348-.066.183-.035c.174-.033.349-.07.522-.111l.218-.05a7.599 7.599 0 0 0 .368-.09 599.071 599.071 0 0 1 .41-.107c.233-.062.443-.13.631-.187a11.005 11.005 0 0 1 .01-.003l.009-.002a9.207 9.207 0 0 0 .556-.183 509.967 509.967 0 0 0 .434-.156.213.213 0 0 0 .032-.014 1.244 1.244 0 0 0-.035.008l-.062.018a18.88 18.88 0 0 1-.053.017 293.55 293.55 0 0 1-.648.207l-.232.067-.197.057a10.762 10.762 0 0 1-.592.16l-.38.098-.007.001c-.084.021-.168.04-.253.058a24.381 24.381 0 0 0-.345.076c-.292.064-.603.118-.927.177a24.343 24.343 0 0 1-2.437.281 23.16 23.16 0 0 1-1.672.04c-.26-.003-.52-.01-.781-.02a118.1 118.1 0 0 0-.251-.015 16.303 16.303 0 0 1-.818-.06 19.239 19.239 0 0 0-.198-.019 8.284 8.284 0 0 1-.4-.043 766.161 766.161 0 0 0-.5-.063c-.155-.021-.3-.045-.435-.067a16.96 16.96 0 0 0-.285-.046 10.621 10.621 0 0 1-.487-.089 757.306 757.306 0 0 0-.32-.06l-.073-.013h-.003m11.372-.418h-.003m-.006.002l-.003.001m-11.365.414h.001" fill="#fff" fill-rule="evenodd" style="stroke:none;stroke-width:0;stroke-dasharray:none;stroke-linecap:butt;stroke-dashoffset:0;stroke-linejoin:miter;stroke-miterlimit:4;fill:#fff;fill-rule:evenodd;opacity:1"/></g></g></svg>