<svg width="157.96" height="62" xmlns="http://www.w3.org/2000/svg">
 <g>
  <g stroke-width="5" id="svg_4">
   <g id="svg_5">
    <text font-family="agency fb" font-size="18" font-weight="400" fill="#d3a42e" fill-rule="evenodd" y="48.10852" x="174.43608" id="svg_6" transform="matrix(1.43856, 0, 0, 1.45149, -28.5166, -6.5361)">
     <tspan x="55.97607" y="32.08852" id="svg_7">Projects</tspan>
    </text>
   </g>
  </g>
  <path stroke-width="4" d="m37.56556,17.79705l-31.89929,0c-1.9494,0 -3.54436,1.39291 -3.54436,3.09536l0,18.57215c0,1.70244 1.59496,3.09536 3.54436,3.09536l7.08874,0l0,-3.09536l-7.08874,0l0,-18.57215l31.89929,0l0,18.57215l-7.08874,0l0,3.09536l7.08874,0c1.9494,0 3.54436,-1.39291 3.54436,-3.09536l0,-18.57215c0,-1.70244 -1.59496,-3.09536 -3.54436,-3.09536zm-26.58275,29.4059l21.26619,0l-10.6331,-9.28608l-10.6331,9.28608z" fill="#d3a42e" fill-rule="evenodd" id="svg_8"/>
 </g>

</svg>