<svg width="33" height="33" xmlns="http://www.w3.org/2000/svg">

 <g>
  <title>Layer 1</title>
  <g id="svg_1" data-name="Component 19 – 1" xmlns="http://www.w3.org/2000/svg">
   <path id="svg_2" data-name="ic_album_24px" fill-rule="evenodd" fill="#f05454" d="m16.50013,3.32353c-7.50073,0 -13.58829,5.90306 -13.58829,13.17647s6.08755,13.17647 13.58829,13.17647s13.58829,-5.90306 13.58829,-13.17647s-6.08755,-13.17647 -13.58829,-13.17647zm0,19.10588a6.10696,5.92188 0 0 1 -6.11473,-5.92941a6.10696,5.92188 0 0 1 6.11473,-5.92941a6.10696,5.92188 0 0 1 6.11473,5.92941a6.10696,5.92188 0 0 1 -6.11473,5.92941zm0,-7.24706c-0.74736,0 -1.35883,0.59294 -1.35883,1.31765a1.36271,1.32141 0 0 0 1.35883,1.31765c0.74736,0 1.35883,-0.59294 1.35883,-1.31765a1.36271,1.32141 0 0 0 -1.35883,-1.31765z"/>
   <path id="svg_3" stroke-width="0.94444" data-name="Ellipse 303" fill="transparent" stroke="#f05454" stroke-linecap="round" stroke-linejoin="round" d="m0.00006,16.41153a16.50006,16 0 1 1 0,0.17694"/>
  </g>
 </g>
</svg>