<svg width="33" height="33" xmlns="http://www.w3.org/2000/svg">

 <g>
  <title>Layer 1</title>
  <path id="svg_1" data-name="ic_crop_free_24px" fill-rule="evenodd" fill="#fff" d="m28.16571,28.16571l-6.66643,0l0,3.33429l6.66643,0c1.83429,0 3.33429,-1.5 3.33429,-3.33429l0,-6.66429l-3.33429,0l0,6.66429zm-23.33357,-6.66429l-3.33214,0l0,6.66429c0,1.83429 1.5,3.33429 3.33214,3.33429l6.66643,0l0,-3.33429l-6.66429,0l0,-6.66429l-0.00214,0zm23.33571,-20.00143l-6.66857,0l0,3.33429l6.66643,0l0,6.66429l3.33429,0l0,-6.66429c0,-1.83429 -1.5,-3.33429 -3.33429,-3.33429l0.00214,0zm-26.66786,3.33429l0,6.66429l3.33214,0l0,-6.66429l6.66643,0l0,-3.33429l-6.66429,0c-1.83429,0 -3.33429,1.5 -3.33429,3.33429z" xmlns="http://www.w3.org/2000/svg"/>
 </g>
</svg>