<svg width="89.59" height="22.9" xmlns="http://www.w3.org/2000/svg"><g><g><g><text font-family="agency fb" font-size="18" font-weight="400" style="white-space:pre" fill="#bfc9d4" fill-rule="evenodd" transform="translate(58.31 12.23)"><tspan x="-30.79" y="5.65">Robots</tspan></text></g></g><path d="M11.13 2.93l2.1-2.1-.82-.83-2.3 2.31c-.94-.47-1.98-.75-3.1-.75s-2.16.28-3.09.75L1.61 0 .79.83l2.1 2.1A6.96 6.96 0 0 0 .01 8.56v1h14v-1a6.903 6.903 0 0 0-1.55-4.367 7.107 7.107 0 0 0-1.33-1.263zm2.88 11.63v-4h-14v4c0 3.87 3.13 7 7 7s7-3.13 7-7zm-10-7c-.55 0-1-.45-1-1s.45-1 1-1 1 .45 1 1-.45 1-1 1zm6 0c-.55 0-1-.45-1-1s.45-1 1-1 1 .45 1 1-.45 1-1 1z" fill="#bfc9d4" fill-rule="evenodd"/></g></svg>