<svg width="33" height="33" xmlns="http://www.w3.org/2000/svg">

 <g>
  <title>Layer 1</title>
  <path id="svg_1" data-name="ic_remove_red_eye_24px" fill-rule="evenodd" fill="#fff" d="m16.50072,2c-6.71263,0 -12.44433,6.01336 -14.76722,14.5c2.32288,8.48664 8.05458,14.5 14.76722,14.5a15.87616,22.86443 0 0 0 14.76578,-14.5a15.87616,22.86443 0 0 0 -14.76578,-14.5zm-6.71263,14.5a6.71407,9.66943 0 0 0 6.71263,9.66736a6.71407,9.66943 0 0 0 6.7112,-9.66736a6.71407,9.66943 0 0 0 -6.7112,-9.66736a6.71407,9.66943 0 0 0 -6.71263,9.66736zm6.71263,-5.8a4.02154,5.79171 0 0 0 -4.02729,5.8c0,3.21071 1.7979,5.8 4.02729,5.8c2.22796,0 4.02729,-2.58929 4.02729,-5.8a4.02154,5.79171 0 0 0 -4.02729,-5.8z" xmlns="http://www.w3.org/2000/svg"/>
 </g>
</svg>