<svg width="33" height="33" xmlns="http://www.w3.org/2000/svg">

 <g>
  <title>Layer 1</title>
  <path id="svg_2" data-name="ic_remove_red_eye_24px" fill-rule="evenodd" fill="#fff" d="m16.50074,2.94018c-6.93993,0 -12.8657,5.88227 -15.26724,14.18391c2.40154,8.30164 8.32732,14.18391 15.26724,14.18391a16.41374,22.366 0 0 0 15.26576,-14.18391a16.41374,22.366 0 0 0 -15.26576,-14.18391zm-6.93993,14.18391a6.94141,9.45864 0 0 0 6.93993,9.45661a6.94141,9.45864 0 0 0 6.93844,-9.45661a6.94141,9.45864 0 0 0 -6.93844,-9.45661a6.94141,9.45864 0 0 0 -6.93993,9.45661zm6.93993,-5.67356a4.15771,5.66546 0 0 0 -4.16366,5.67356c0,3.14072 1.85878,5.67356 4.16366,5.67356c2.3034,0 4.16366,-2.53284 4.16366,-5.67356a4.15771,5.66546 0 0 0 -4.16366,-5.67356z" xmlns="http://www.w3.org/2000/svg"/>
  <path transform="rotate(3, 16.5, 16.5)" id="svg_3" data-name="Line 53" fill="transparent" stroke="#f05454" stroke-width="3" stroke-linecap="round" stroke-linejoin="round" d="m26.1411,3.71827l-19.2822,25.56345" xmlns="http://www.w3.org/2000/svg"/>
 </g>
</svg>