<svg width="33" height="33" xmlns="http://www.w3.org/2000/svg">

 <g>
  <path id="svg_1" d="m5.01,22.5l0,4.5l24,0l0,-4.5c0,-3.803 -7.264,-5.808 -11.413,-5.987a13.635,13.635 0 0 0 -0.587,-0.013c-4.005,0 -12,2.01 -12,6zm21.15,0l0,4.5l-18.3,0l0,-4.5a0.586,0.586 0 0 1 0.155,-0.345c0.799,-1 4.571,-2.617 8.344,-2.79a14.212,14.212 0 0 1 1.302,0c3.977,0.183 7.953,1.969 8.448,2.946c0.031,0.058 0.049,0.123 0.051,0.189zm-9.15,-19.5c-3.315,0 -6,2.685 -6,6s2.685,6 6,6s6,-2.685 6,-6s-2.685,-6 -6,-6zm0,2.85a3.15,3.15 0 1 1 0,6.3a3.15,3.15 0 0 1 0,-6.3z" opacity="undefined" fill="#d3a42e"/>
 </g>
</svg>