<svg width="30" height="30" xmlns="http://www.w3.org/2000/svg">

 <g>
  <title>Layer 1</title>
  <path id="svg_1" fill-rule="evenodd" fill="#d3a42e" d="m23.2,3.4l-1.2,0l0,-2.4l-2.4,0l0,2.4l-9.6,0l0,-2.4l-2.4,0l0,2.4l-1.2,0a2.4,2.4 0 0 0 -2.4,2.4l0,16.8a2.4,2.4 0 0 0 2.4,2.4l16.8,0c1.32,0 2.4,-1.08 2.4,-2.4l0,-16.8c0,-1.32 -1.08,-2.4 -2.4,-2.4zm-1.2,18l-14.4,0l0,-1.2c0,-2.287 4.36,-3.594 6.847,-3.711c0.118,-0.006 0.235,-0.009 0.353,-0.009c2.4,0 7.2,1.32 7.2,3.72l0,1.2zm-3.6,-10.8a3.595,3.595 0 0 0 -3.6,-3.6a3.595,3.595 0 0 0 -3.6,3.6a3.595,3.595 0 0 0 3.6,3.6a3.595,3.595 0 0 0 3.6,-3.6z" xmlns="http://www.w3.org/2000/svg"/>
 </g>
</svg>